<?xml version="1.0" encoding="UTF-8"?>
<svg id="Layer_2" data-name="Layer 2" xmlns="http://www.w3.org/2000/svg" xmlns:xlink="http://www.w3.org/1999/xlink" viewBox="0 0 574.61 186.38">
  <defs>
    <style>
      .cls-1 {
        fill: url(#GradientFill_1);
      }

      .cls-1, .cls-2, .cls-3 {
        fill-rule: evenodd;
      }

      .cls-2 {
        fill: url(#GradientFill_9);
      }

      .cls-3 {
        fill: #000;
      }
    </style>
    <linearGradient id="GradientFill_1" data-name="GradientFill 1" x1="47.79" y1="18.31" x2="112.23" y2="184.25" gradientUnits="userSpaceOnUse">
      <stop offset="0" stop-color="#000"/>
      <stop offset=".48" stop-color="#000"/>
      <stop offset="1" stop-color="#000"/>
    </linearGradient>
    <linearGradient id="GradientFill_9" data-name="GradientFill 9" x1="381.89" y1="77.3" x2="381.86" y2="131.67" gradientUnits="userSpaceOnUse">
      <stop offset="0" stop-color="#000"/>
      <stop offset="1" stop-color="#000"/>
    </linearGradient>
  </defs>
  <g id="Layer_1-2" data-name="Layer 1">
    <path class="cls-1" d="m0,9.78v43.19h13.09c0-2.84-.01-29.7.14-29.98h112.29c.62,1.31,1.27,2.46,2.06,3.46.6.77,2.05,2.24,2.74,2.78,7.49,5.8,17.88,4.31,23.32-2.92,7.19-9.54,2.12-23.1-9.08-25.85l-2.34-.44s-.05-.01-.07-.02h-3.19c-.28.14-2.61.34-4.66,1.2-3.34,1.41-6.02,3.72-7.84,6.77-.22.37-.8,1.59-.99,1.81H0Zm163.36,163.37l-150.15.03s-.02-.05-.02-.06c0-.02-.02-.04-.02-.06l-.1-15H0v28.33h176.57v-28.9h-13.19s-.03,15.67-.03,15.67h0ZM91.28,58.8l-42.27.03v93.25s.01-17.81.01-17.81c-.19-1.01.04-38.54.04-39.52,4.46,0,8.68-.08,13.15-.08v-22.6c.22-.16.61-.1.89-.1,3.86.02,27.34-.1,28.21.03h13.2s58.82.02,58.82.02l.14,31.28c2.17,0,4.35,0,6.52,0s4.53.06,6.57-.08v-44.43h-72.01s-.01-1.14-.01-1.14h0l-.06,1.16-13.21-.02h0Zm37.76,80.11c.17-.4.08-6.26.08-7.23h13.17v20.45s-93.27-.05-93.27-.05v-17.81s13.2-.08,13.2-.08v4.66c5.53.09,11.17.03,16.71,0,.68,0,1.2.08,1.95.08h43.96c1.26,0,3.02.1,4.22-.02h0ZM24.5,44l.03-10.37,79.97.03.02,9.61c-.54,0-2.65.67-3.32.86-1.1.3-2.21.61-3.31.9-2.16.57-4.42,1.16-6.6,1.81l-53.54.03v5.58s-5.06,0-5.06,0c-.55,0-.9.09-1.54.08-1.11,0-2.22,0-3.33,0-1.15,0-2.05.08-3.23.08l-.09-8.6h0Zm104.54,94.91v-22.01c-1.22-.36-3.67-2.12-4.33-2.78-1.44-1.43-2.15-2.14-3.24-3.98-6.16-10.4,1.13-24.68,14.14-24.68,2.18,0,4.18.42,6.07,1.14,1.82.7,3.84,1.99,5.02,3.09,6.33,5.91,7.31,15.71,1.72,22.52-1.06,1.29-2.36,2.56-3.78,3.44-.81.5-1.54.82-2.34,1.29v14.75h-13.17c0,.97.09,6.83-.08,7.23h0Zm-37.7-51.36l7.27-1.95c.32-.08.56-.1.86-.19.57-.16,1.08-.3,1.65-.45l3.37-.87v11.88c2.55,1.61,4.07,2.96,5.53,5.85,1.41,2.8,1.8,6.36.88,9.64-1.5,5.34-6.46,9.83-13,9.83-6.54,0-11.51-4.48-13-9.83-1.49-5.32.42-11,4.61-14.27.55-.43,1.1-.75,1.72-1.16.23-.32.11-3.77.11-4.15,0-1.43-.03-2.88,0-4.3h0ZM0,52.97h13.09c0-2.84-.01-29.7.14-29.98l-.03,125.88-.02-16.71c.15-.8.01-27.75,0-28.29-4.46,0-8.7.08-13.19.08v-50.99h0Zm24.54,42.09c.12.48.07,6.97-.05,7.16-2.39,1.37-4.23,3.25-5.55,5.9-4.2,8.43,1.83,19.45,12.2,19.42,6.58-.02,11.54-4.59,13-9.87,1.25-4.53.13-8.8-2.57-12.24-1.26-1.61-2.31-2.16-3.83-3.24v-7.38c-1.18,0-2.13.08-3.36.08-1.06,0-2.28-.06-3.32,0-.34.02-.4.08-.81.08h-4.14c-.64,0-1.04.08-1.58.08h0Zm24.49,39.21c-.19-1.01.04-38.54.04-39.52,4.46,0,8.68-.08,13.15-.08v39.52s-13.19.08-13.19.08h0Zm114.33,38.88l-.03-101.12.14,31.28c2.17,0,4.35,0,6.52,0s4.53.06,6.57-.08v32.09h-13.11s-.07,22.17-.07,22.17l-.03,15.66h0ZM0,103.95v28.21h13.18c.15-.8.01-27.75,0-28.29-4.46,0-8.7.08-13.19.08h0Zm0,54.11v-25.89h13.18l.02,16.71v24.3s-.01-.05-.02-.06c0-.02-.02-.04-.02-.06l-.1-15H0Zm24.49-55.83v-58.23s.1,8.6.1,8.6c1.18,0,2.08-.08,3.23-.08,1.11,0,2.22,0,3.33,0,.64,0,.99-.08,1.54-.08h5.06v22.08c-4.43,0-8.73.16-13.15.16,0,1.8-.26,19.17-.06,20.38.12.48.07,6.97-.05,7.16h0Zm138.9,55.26l.07-22.17h13.11s0,22.16,0,22.16h-13.19ZM24.54,95.06c-.2-1.21.06-18.58.06-20.38,4.43,0,8.72-.16,13.15-.16v20.3c-1.19,0-2.13.08-3.36.08-1.06,0-2.28-.06-3.32,0-.34.02-.4.08-.81.08h-4.14c-.64,0-1.04.08-1.58.08h0Zm66.79-16.66l.07-.77c1.08,0,2.17,0,3.26,0,1.18,0,2.07-.08,3.24-.08h3.33c1.18,0,2.08-.08,3.28-.08v6.6s-3.38.87-3.38.87c-.57.15-1.08.29-1.65.45-.31.09-.54.11-.86.19l-7.27,1.95v-9.14h0Zm-.04-31.58c2.18-.65,4.44-1.24,6.6-1.81,1.1-.29,2.21-.6,3.31-.9.67-.18,2.77-.85,3.32-.86l.02,10.78c-.13-.29-.1-.84-.11-1.22-2.13,0-4.51-.1-6.61,0-.3.01-.46.08-.76.13l-5.76.03v-6.16h0Zm.04,31.58l-.02-6.4h13.2s-.01,5.47-.01,5.47c-1.2,0-2.1.08-3.28.08h-3.33c-1.17,0-2.06.08-3.24.08-1.09,0-2.18,0-3.26,0l-.07.77h0Zm-.03-25.42l5.76-.03c.3-.05.45-.12.76-.13,2.1-.1,4.48,0,6.61,0,.01.38-.01.93.11,1.22v2.11s-.01,0-.01,0l-.09-1.35h-13.14s0-1.81,0-1.81h0Zm0,3.61h13.19s.05-.44.05-.44l-.09-1.35h-13.14s0,1.79,0,1.79h0Zm-.02,2.2v-1.59h13.27v.46l-.06,1.16-13.21-.02h0Zm.02-2.2h13.19s.05-.44.05-.44h.02v1.51h0v-.46h-13.26v-.61h0Zm-.07,39.41l.02-23.95h-29.03c.22-.15.61-.08.89-.08,3.86.02,27.34-.1,28.21.03l.02,6.4v9.14c-.02,1.42,0,2.88,0,4.3,0,.38.12,3.83-.11,4.15Z"/>
    <path class="cls-2" d="m191.07,77.3h44.24c.51,0,.96.18,1.35.54.39.36.58.79.58,1.27v5.44c0,.48-.19.91-.58,1.27-.39.36-.84.54-1.35.54h-17.35v43.51c0,.48-.19.91-.58,1.27-.39.36-.84.54-1.35.54h-5.78c-.51,0-.96-.18-1.35-.54-.39-.36-.58-.79-.58-1.27v-43.51h-17.25c-.51,0-.96-.18-1.35-.54-.39-.36-.58-.79-.58-1.27v-5.44c0-.48.19-.91.58-1.27.39-.36.84-.54,1.35-.54h0Zm60.63,30.27h28.92v-21.3h-28.92v21.3h0Zm28.92,22.3v-15.32h-28.92v15.32c0,.48-.19.91-.58,1.27-.39.36-.84.54-1.35.54h-5.78c-.51,0-.96-.18-1.35-.54-.39-.36-.58-.79-.58-1.27v-46.95c0-1.54.58-2.86,1.74-3.94,1.19-1.12,2.6-1.68,4.24-1.68h36.24c1.64,0,3.04.56,4.19,1.68,1.19,1.09,1.78,2.4,1.78,3.94v46.95c0,.48-.19.91-.58,1.27-.39.36-.84.54-1.35.54h-5.78c-.51,0-.96-.18-1.35-.54-.39-.36-.58-.79-.58-1.27h0Zm64.58-43.51h-36.63v36.25h36.63c.51,0,.96.18,1.35.54.39.36.58.79.58,1.27v5.44c0,.48-.19.91-.58,1.27-.39.36-.84.54-1.35.54h-40.29c-1.64,0-3.05-.54-4.24-1.63-1.16-1.15-1.74-2.48-1.74-3.99v-43.14c0-1.54.58-2.86,1.74-3.94,1.19-1.12,2.6-1.68,4.24-1.68h40.29c.51,0,.96.18,1.35.54.39.36.58.79.58,1.27v5.44c0,.48-.19.91-.58,1.27-.39.36-.84.54-1.35.54h0Zm58.8-7.25v50.76c0,.48-.19.91-.58,1.27-.39.36-.84.54-1.35.54h-5.78c-.51,0-.96-.18-1.35-.54-.39-.36-.58-.79-.58-1.27v-20.85h-28.92v20.85c0,.48-.19.91-.58,1.27-.39.36-.84.54-1.35.54h-5.78c-.51,0-.96-.18-1.35-.54-.39-.36-.58-.79-.58-1.27v-50.76c0-.48.19-.91.58-1.27.39-.36.84-.54,1.35-.54h5.78c.51,0,.96.18,1.35.54.39.36.58.79.58,1.27v20.94h28.92v-20.94c0-.48.19-.91.58-1.27.39-.36.84-.54,1.35-.54h5.78c.51,0,.96.18,1.35.54.39.36.58.79.58,1.27h0Zm18.31,0v27.64h28.92v-27.64c0-.48.19-.91.58-1.27.39-.36.84-.54,1.35-.54h5.78c.51,0,.96.18,1.35.54.39.36.58.79.58,1.27v46.95c0,1.54-.59,2.87-1.78,3.99-1.16,1.09-2.55,1.63-4.19,1.63h-36.24c-1.64,0-3.05-.54-4.24-1.63-1.16-1.15-1.74-2.48-1.74-3.99v-3.44h38.56v-6.8h-32.58c-1.64,0-3.05-.54-4.24-1.63-1.16-1.15-1.74-2.48-1.74-3.99v-31.09c0-.48.19-.91.58-1.27.39-.36.84-.54,1.35-.54h5.78c.51,0,.96.18,1.35.54.39.36.58.79.58,1.27h0Zm95.43,3.81v43.14c0,1.54-.59,2.87-1.78,3.99-1.16,1.09-2.55,1.63-4.19,1.63h-36.24c-1.64,0-3.05-.54-4.24-1.63-1.16-1.15-1.74-2.48-1.74-3.99v-43.14c0-1.54.58-2.86,1.74-3.94,1.19-1.12,2.6-1.68,4.24-1.68h36.24c1.64,0,3.04.56,4.19,1.68,1.19,1.09,1.78,2.4,1.78,3.94h0Zm-38.56,39.7h28.92v-36.25h-28.92v36.25h0Zm95.43-43.51v46.95c0,1.54-.59,2.87-1.78,3.99-1.16,1.09-2.55,1.63-4.19,1.63h-1.93c-1.64,0-2.86-.6-3.66-1.81l-26.99-38.43v38.43c0,.48-.19.91-.58,1.27-.39.36-.84.54-1.35.54h-5.78c-.51,0-.96-.18-1.35-.54-.39-.36-.58-.79-.58-1.27v-46.95c0-1.54.58-2.86,1.74-3.94,1.19-1.12,2.6-1.68,4.24-1.68h1.83c1.64,0,2.86.6,3.66,1.81l27.09,38.61v-38.61c0-.48.19-.91.58-1.27.39-.36.84-.54,1.35-.54h5.78c.51,0,.96.18,1.35.54.39.36.58.79.58,1.27Z"/>
    <path class="cls-3" d="m197.23,145.43v34.93h37.19c.33,0,.61.14.86.42.25.28.37.6.37.97v2.42c0,.37-.12.69-.37.97-.25.28-.53.42-.86.42h-37.99c-1.02,0-1.93-.42-2.71-1.24-.74-.88-1.11-1.89-1.11-3.04v-35.83c0-.37.12-.69.37-.97.25-.28.53-.41.86-.41h2.15c.33,0,.62.14.86.41.25.28.37.6.37.97h0Zm54.13,23.1h33.81v-19.37h-33.81v19.37h0Zm33.81,15.63v-11.69h-33.81v11.69c0,.37-.12.69-.37.97-.25.28-.53.42-.86.42h-2.15c-.33,0-.61-.14-.86-.42-.25-.28-.37-.6-.37-.97v-35.83c0-1.18.37-2.18,1.11-3.01.76-.85,1.66-1.28,2.71-1.28h35.41c1.05,0,1.94.43,2.67,1.28.76.83,1.14,1.83,1.14,3.01v35.83c0,.37-.12.69-.37.97-.25.28-.53.42-.86.42h-2.15c-.33,0-.61-.14-.86-.42-.25-.28-.37-.6-.37-.97h0Zm20.32-21.86h33.81v-13.14h-33.81v13.14h0Zm0,18.12h33.81v-14.04h-33.81v14.04h0Zm31.97,5.12h-35.35c-.33,0-.61-.14-.86-.42-.25-.28-.37-.6-.37-.97v-38.73c0-.37.12-.69.37-.97.25-.28.53-.41.86-.41h35.35c1.76,0,3.28.69,4.55,2.07s1.91,3.04,1.91,4.98v6.02c0,1.94-.64,3.6-1.91,4.98s-2.79,2.08-4.55,2.08v.28c1.76,0,3.28.69,4.55,2.08s1.91,3.04,1.91,4.98v6.99c0,1.94-.64,3.6-1.91,4.98s-2.79,2.07-4.55,2.07h0Zm59.36-36.31h-37.19v12.93h34.61c1.05,0,1.94.43,2.67,1.28.76.83,1.14,1.83,1.14,3.01v14.8c0,1.18-.38,2.19-1.14,3.04-.74.83-1.63,1.24-2.67,1.24h-37.99c-.33,0-.61-.14-.86-.42-.25-.28-.37-.6-.37-.97v-2.42c0-.37.12-.69.37-.97.25-.28.53-.42.86-.42h37.19v-13h-34.61c-1.02,0-1.93-.41-2.71-1.24-.74-.88-1.11-1.89-1.11-3.04v-14.73c0-1.18.37-2.18,1.11-3.01.76-.85,1.66-1.28,2.71-1.28h37.99c.33,0,.61.14.86.41.25.28.37.6.37.97v2.42c0,.37-.12.69-.37.97-.25.28-.53.41-.86.41Z"/>
  </g>
</svg>