<?xml version="1.0" encoding="UTF-8"?>
<svg width="140" height="26" viewBox="0 0 140 26" fill="none" xmlns="http://www.w3.org/2000/svg">
  <!-- Logomark -->
  <g id="logomark">
    <path d="M13 2 C19.075 2, 24 6.925, 24 13 C24 19.075, 19.075 24, 13 24 C6.925 24, 2 19.075, 2 13" 
          stroke="currentColor" stroke-width="2.5" stroke-linecap="round"/>
    <path d="M2 13 C2 6.925, 6.925 2, 13 2" 
          stroke="currentColor" stroke-width="2.5" stroke-linecap="round" opacity="0.3"/>
    <circle cx="13" cy="13" r="3" fill="currentColor"/>
  </g>
  
  <!-- Wordmark -->
  <g id="wordmark" transform="translate(32, 0)">
    <path d="M0 16.5C0 17.9 1.1 19 2.5 19H6C7.4 19 8.5 17.9 8.5 16.5C8.5 15.1 7.4 14 6 14H2.5C1.1 14 0 12.9 0 11.5C0 10.1 1.1 9 2.5 9H6C7.4 9 8.5 10.1 8.5 11.5M4.25 8V9M4.25 19V20" 
          stroke="currentColor" stroke-width="2" stroke-linecap="round" fill="none"/>
    <path d="M15.5 18.5V17.5C14.8 18.3 13.8 18.8 12.5 18.8C10.5 18.8 9 17.3 9 15.5C9 13.7 10.5 12.2 12.5 12.2C13.8 12.2 14.8 12.7 15.5 13.5V12.5H18.5V18.5H15.5ZM13.5 16C14.3 16 15 15.3 15 14.5C15 13.7 14.3 13 13.5 13C12.7 13 12 13.7 12 14.5C12 15.3 12.7 16 13.5 16Z" fill="currentColor"/>
    <path d="M20 18.5V12.5H22.5V13.2C23 12.6 23.7 12.2 24.5 12.2C25.3 12.2 26 12.6 26.5 13.2C27 12.6 27.7 12.2 28.5 12.2C30 12.2 31 13.2 31 14.7V18.5H28.5V15C28.5 14.2 28 13.7 27.3 13.7C26.6 13.7 26 14.2 26 15V18.5H23.5V15C23.5 14.2 23 13.7 22.3 13.7C21.6 13.7 21 14.2 21 15V18.5H20Z" fill="currentColor"/>
    <path d="M38.5 18.5V17.5C37.8 18.3 36.8 18.8 35.5 18.8C33.5 18.8 32 17.3 32 15.5C32 13.7 33.5 12.2 35.5 12.2C36.8 12.2 37.8 12.7 38.5 13.5V12.5H41.5V18.5H38.5ZM36.5 16C37.3 16 38 15.3 38 14.5C38 13.7 37.3 13 36.5 13C35.7 13 35 13.7 35 14.5C35 15.3 35.7 16 36.5 16Z" fill="currentColor"/>
    <path d="M43 18.5V12.5H45.5V13.5C46 12.7 47 12.2 48 12.2V14.7C47.7 14.6 47.4 14.5 47 14.5C46.2 14.5 45.5 15 45.5 15.8V18.5H43Z" fill="currentColor"/>
    <path d="M49.5 9.5C49.5 8.7 50.2 8 51 8C51.8 8 52.5 8.7 52.5 9.5C52.5 10.3 51.8 11 51 11C50.2 11 49.5 10.3 49.5 9.5ZM49.5 12.5H52.5V18.5H49.5V12.5Z" fill="currentColor"/>
    <path d="M54 12.5H57V13.5C57.5 12.7 58.5 12.2 59.5 12.2V14.7C59.2 14.6 58.9 14.5 58.5 14.5C57.7 14.5 57 15 57 15.8V18.5H54V12.5Z" fill="currentColor"/>
    <path d="M65.5 18.5V17.5C64.8 18.3 63.8 18.8 62.5 18.8C60.5 18.8 59 17.3 59 15.5C59 13.7 60.5 12.2 62.5 12.2C63.8 12.2 64.8 12.7 65.5 13.5V12.5H68.5V18.5H65.5ZM63.5 16C64.3 16 65 15.3 65 14.5C65 13.7 64.3 13 63.5 13C62.7 13 62 13.7 62 14.5C62 15.3 62.7 16 63.5 16Z" fill="currentColor"/>
    <path d="M70 18.5V12.5H72.5V13.5C73 12.7 73.8 12.2 74.8 12.2C76.3 12.2 77.5 13.4 77.5 15V18.5H75V15.2C75 14.4 74.5 13.9 73.8 13.9C73.1 13.9 72.5 14.4 72.5 15.2V18.5H70Z" fill="currentColor"/>
  </g>
</svg>