<?xml version="1.0" encoding="UTF-8"?>
<svg width="64" height="64" viewBox="0 0 64 64" fill="none" xmlns="http://www.w3.org/2000/svg">
  <!-- Logomark -->
  <g id="logomark" transform="translate(19, 0)">
    <path d="M13 2 C19.075 2, 24 6.925, 24 13 C24 19.075, 19.075 24, 13 24 C6.925 24, 2 19.075, 2 13" 
          stroke="currentColor" stroke-width="2.5" stroke-linecap="round"/>
    <path d="M2 13 C2 6.925, 6.925 2, 13 2" 
          stroke="currentColor" stroke-width="2.5" stroke-linecap="round" opacity="0.3"/>
    <circle cx="13" cy="13" r="3" fill="currentColor"/>
  </g>
  
  <!-- Wordmark -->
  <g id="wordmark" transform="translate(0, 36)">
    <path d="M5 10.5C5 11.3 5.6 11.9 6.4 11.9H8.5C9.3 11.9 9.9 11.3 9.9 10.5C9.9 9.7 9.3 9.1 8.5 9.1H6.4C5.6 9.1 5 8.5 5 7.7C5 6.9 5.6 6.3 6.4 6.3H8.5C9.3 6.3 9.9 6.9 9.9 7.7M7.5 5.8V6.3M7.5 11.9V12.4" 
          stroke="currentColor" stroke-width="1.5" stroke-linecap="round" fill="none"/>
    <path d="M13.5 11.5V11C13.1 11.4 12.5 11.6 11.8 11.6C10.5 11.6 9.5 10.6 9.5 9.5C9.5 8.4 10.5 7.4 11.8 7.4C12.5 7.4 13.1 7.6 13.5 8V7.5H15V11.5H13.5ZM12.3 10.3C12.8 10.3 13.2 9.9 13.2 9.4C13.2 8.9 12.8 8.5 12.3 8.5C11.8 8.5 11.4 8.9 11.4 9.4C11.4 9.9 11.8 10.3 12.3 10.3Z" fill="currentColor"/>
    <path d="M16 11.5V7.5H17.5V8C17.8 7.6 18.2 7.4 18.7 7.4C19.1 7.4 19.5 7.6 19.8 8C20.1 7.6 20.5 7.4 21 7.4C21.9 7.4 22.5 8 22.5 8.9V11.5H21V9.1C21 8.6 20.7 8.3 20.3 8.3C19.9 8.3 19.5 8.6 19.5 9.1V11.5H18V9.1C18 8.6 17.7 8.3 17.3 8.3C16.9 8.3 16.5 8.6 16.5 9.1V11.5H16Z" fill="currentColor"/>
    <path d="M26.5 11.5V11C26.1 11.4 25.5 11.6 24.8 11.6C23.5 11.6 22.5 10.6 22.5 9.5C22.5 8.4 23.5 7.4 24.8 7.4C25.5 7.4 26.1 7.6 26.5 8V7.5H28V11.5H26.5ZM25.3 10.3C25.8 10.3 26.2 9.9 26.2 9.4C26.2 8.9 25.8 8.5 25.3 8.5C24.8 8.5 24.4 8.9 24.4 9.4C24.4 9.9 24.8 10.3 25.3 10.3Z" fill="currentColor"/>
    <path d="M29 11.5V7.5H30.5V8.2C30.8 7.7 31.4 7.4 32 7.4V9C31.8 8.9 31.6 8.9 31.4 8.9C30.9 8.9 30.5 9.2 30.5 9.7V11.5H29Z" fill="currentColor"/>
    <path d="M33 6C33 5.5 33.4 5.1 33.9 5.1C34.4 5.1 34.8 5.5 34.8 6C34.8 6.5 34.4 6.9 33.9 6.9C33.4 6.9 33 6.5 33 6ZM33 7.5H34.8V11.5H33V7.5Z" fill="currentColor"/>
    <path d="M35.5 7.5H37V8.2C37.3 7.7 37.9 7.4 38.5 7.4V9C38.3 8.9 38.1 8.9 37.9 8.9C37.4 8.9 37 9.2 37 9.7V11.5H35.5V7.5Z" fill="currentColor"/>
    <path d="M41.5 11.5V11C41.1 11.4 40.5 11.6 39.8 11.6C38.5 11.6 37.5 10.6 37.5 9.5C37.5 8.4 38.5 7.4 39.8 7.4C40.5 7.4 41.1 7.6 41.5 8V7.5H43V11.5H41.5ZM40.3 10.3C40.8 10.3 41.2 9.9 41.2 9.4C41.2 8.9 40.8 8.5 40.3 8.5C39.8 8.5 39.4 8.9 39.4 9.4C39.4 9.9 39.8 10.3 40.3 10.3Z" fill="currentColor"/>
    <path d="M44 11.5V7.5H45.5V8.2C45.8 7.7 46.3 7.4 46.9 7.4C47.8 7.4 48.5 8.1 48.5 9.1V11.5H47V9.2C47 8.7 46.7 8.4 46.3 8.4C45.9 8.4 45.5 8.7 45.5 9.2V11.5H44Z" fill="currentColor"/>
  </g>
</svg>