<?xml version="1.0" encoding="UTF-8"?>
<svg width="148" height="26" viewBox="0 0 148 26" fill="none" xmlns="http://www.w3.org/2000/svg">
  <path d="M0.5 8.5H6V18.5H9.5V8.5H15V5.5H0.5V8.5Z" fill="currentColor"/>
  <path d="M24 18.5V17.5C23.3 18.3 22.3 18.8 21 18.8C19 18.8 17.5 17.3 17.5 15.5C17.5 13.7 19 12.2 21 12.2C22.3 12.2 23.3 12.7 24 13.5V12.5H27V18.5H24ZM22 16C22.8 16 23.5 15.3 23.5 14.5C23.5 13.7 22.8 13 22 13C21.2 13 20.5 13.7 20.5 14.5C20.5 15.3 21.2 16 22 16Z" fill="currentColor"/>
  <path d="M33.5 18.8C31 18.8 29 16.8 29 14.3C29 11.8 31 9.8 33.5 9.8C35.3 9.8 36.8 10.7 37.5 12.2L35 13.3C34.7 12.8 34.1 12.5 33.5 12.5C32.5 12.5 31.7 13.3 31.7 14.3C31.7 15.3 32.5 16.1 33.5 16.1C34.1 16.1 34.7 15.8 35 15.3L37.5 16.4C36.8 17.9 35.3 18.8 33.5 18.8Z" fill="currentColor"/>
  <path d="M39.5 5.5H42.5V11.5C43.2 10.3 44.3 9.8 45.5 9.8C47.7 9.8 49 11.3 49 13.5V18.5H46V14C46 13 45.3 12.5 44.5 12.5C43.7 12.5 43 13 43 14V18.5H39.5V5.5Z" fill="currentColor"/>
  <path d="M51 20V18.5H51.5L54.5 10H58L60 15.5L62 10H65.5L68.5 18.5H69V20H65.5V18.5H66L65 15.5L63.5 19.5H60.5L59 15.5L58 18.5H58.5V20H51Z" fill="currentColor"/>
  <path d="M70.5 18.5V10H73.5V11C74.2 10.2 75.2 9.8 76.3 9.8C78.3 9.8 79.5 11.3 79.5 13.5V18.5H76.5V14C76.5 13 75.8 12.5 75 12.5C74.2 12.5 73.5 13 73.5 14V18.5H70.5Z" fill="currentColor"/>
  <path d="M88 5.5H91V18.5H94.5V21.5H91V18.5H84.5V5.5H88V18.5Z" fill="currentColor"/>
  <path d="M103.5 18.5V17.5C102.8 18.3 101.8 18.8 100.5 18.8C98.5 18.8 97 17.3 97 15.5C97 13.7 98.5 12.2 100.5 12.2C101.8 12.2 102.8 12.7 103.5 13.5V12.5H106.5V18.5H103.5ZM101.5 16C102.3 16 103 15.3 103 14.5C103 13.7 102.3 13 101.5 13C100.7 13 100 13.7 100 14.5C100 15.3 100.7 16 101.5 16Z" fill="currentColor"/>
  <path d="M109 5.5H112V11.5C112.7 10.3 113.8 9.8 115 9.8C117.2 9.8 118.5 11.3 118.5 13.5V18.5H115.5V14C115.5 13 114.8 12.5 114 12.5C113.2 12.5 112.5 13 112.5 14V18.5H109V5.5Z" fill="currentColor"/>
  <path d="M124 18.8C122.2 18.8 120.8 17.8 120.1 16.3L122.6 15.2C122.9 15.7 123.4 16 124 16C124.6 16 125.1 15.7 125.4 15.2L127.9 16.3C127.2 17.8 125.8 18.8 124 18.8ZM120.5 13.5C120.5 11 122.5 9 125 9C126.8 9 128.2 10 128.9 11.5L126.4 12.6C126.1 12.1 125.6 11.8 125 11.8C124.4 11.8 123.9 12.1 123.6 12.6L121.1 11.5C121.8 10 123.2 9 125 9C127.5 9 129.5 11 129.5 13.5C129.5 13.8 129.5 14.1 129.4 14.4H123.5C123.8 15.1 124.4 15.5 125 15.5C125.6 15.5 126.1 15.2 126.4 14.7L128.9 15.8C128.2 17.3 126.8 18.3 125 18.3C122.5 18.3 120.5 16.3 120.5 13.8V13.5Z" fill="currentColor"/>
</svg>