<?xml version="1.0" encoding="UTF-8"?>
<svg width="64" height="82" viewBox="0 0 64 82" fill="none" xmlns="http://www.w3.org/2000/svg">
  <!-- Logomark -->
  <g id="logomark" transform="translate(19, 0)">
    <path d="M13 2 C19.075 2, 24 6.925, 24 13 C24 19.075, 19.075 24, 13 24 C6.925 24, 2 19.075, 2 13" 
          stroke="currentColor" stroke-width="2.5" stroke-linecap="round"/>
    <path d="M2 13 C2 6.925, 6.925 2, 13 2" 
          stroke="currentColor" stroke-width="2.5" stroke-linecap="round" opacity="0.3"/>
    <circle cx="13" cy="13" r="3" fill="currentColor"/>
  </g>
  
  <!-- Wordmark -->
  <g id="wordmark" transform="translate(0, 36)">
    <path d="M0 3H2.5V11H4.5V3H7V1H0V3Z" fill="currentColor"/>
    <path d="M10.5 11V10.5C10.2 10.9 9.7 11.1 9 11.1C8 11.1 7.3 10.4 7.3 9.4C7.3 8.4 8 7.7 9 7.7C9.7 7.7 10.2 7.9 10.5 8.3V7.8H12V11H10.5ZM9.3 9.8C9.7 9.8 10 9.5 10 9.1C10 8.7 9.7 8.4 9.3 8.4C8.9 8.4 8.6 8.7 8.6 9.1C8.6 9.5 8.9 9.8 9.3 9.8Z" fill="currentColor"/>
    <path d="M15 11.1C13.8 11.1 12.8 10.1 12.8 8.9C12.8 7.7 13.8 6.7 15 6.7C15.9 6.7 16.7 7.1 17 7.9L15.8 8.4C15.6 8.2 15.3 8 15 8C14.5 8 14.1 8.4 14.1 8.9C14.1 9.4 14.5 9.8 15 9.8C15.3 9.8 15.6 9.6 15.8 9.4L17 9.9C16.7 10.7 15.9 11.1 15 11.1Z" fill="currentColor"/>
    <path d="M17.8 1H19.3V7.3C19.6 6.7 20.1 6.5 20.7 6.5C21.8 6.5 22.4 7.2 22.4 8.3V11H20.9V8.5C20.9 8 20.6 7.8 20.2 7.8C19.8 7.8 19.5 8 19.5 8.5V11H17.8V1Z" fill="currentColor"/>
    <path d="M23 12.2V11H23.3L24.8 6.5H26.5L27.5 9.3L28.5 6.5H30.2L31.7 11H32V12.2H30.2V11H30.5L30 9.3L29.3 11.6H27.7L27 9.3L26.5 11H26.8V12.2H23Z" fill="currentColor"/>
    <path d="M32.8 11V6.5H34.3V7C34.6 6.6 35.1 6.4 35.6 6.4C36.6 6.4 37.2 7.1 37.2 8.2V11H35.7V8.4C35.7 7.9 35.4 7.7 35 7.7C34.6 7.7 34.3 7.9 34.3 8.4V11H32.8Z" fill="currentColor"/>
    <path d="M2 16.5H4V24.5H6V26.5H4V24.5H0V16.5H2V24.5Z" fill="currentColor"/>
    <path d="M10.5 25V24.5C10.2 24.9 9.7 25.1 9 25.1C8 25.1 7.3 24.4 7.3 23.4C7.3 22.4 8 21.7 9 21.7C9.7 21.7 10.2 21.9 10.5 22.3V21.8H12V25H10.5ZM9.3 23.8C9.7 23.8 10 23.5 10 23.1C10 22.7 9.7 22.4 9.3 22.4C8.9 22.4 8.6 22.7 8.6 23.1C8.6 23.5 8.9 23.8 9.3 23.8Z" fill="currentColor"/>
    <path d="M13.5 15H15V21.3C15.3 20.7 15.8 20.5 16.5 20.5C17.6 20.5 18.2 21.2 18.2 22.3V25H16.7V22.5C16.7 22 16.4 21.8 16 21.8C15.6 21.8 15.3 22 15.3 22.5V25H13.5V15Z" fill="currentColor"/>
    <path d="M21 25.1C20.1 25.1 19.5 24.6 19.2 23.9L20.5 23.4C20.6 23.6 20.8 23.8 21 23.8C21.2 23.8 21.4 23.6 21.5 23.4L22.8 23.9C22.5 24.6 21.9 25.1 21 25.1ZM19.3 22.5C19.3 21.2 20.3 20.2 21.6 20.2C22.5 20.2 23.1 20.7 23.4 21.5L22.1 22C22 21.8 21.8 21.7 21.6 21.7C21.4 21.7 21.2 21.8 21.1 22L19.8 21.5C20.1 20.7 20.7 20.2 21.6 20.2C22.9 20.2 23.9 21.2 23.9 22.5C23.9 22.6 23.9 22.7 23.9 22.8H21.4C21.5 23.1 21.8 23.3 22 23.3C22.2 23.3 22.4 23.2 22.5 23L23.8 23.5C23.5 24.2 22.9 24.7 22 24.7C20.7 24.7 19.7 23.7 19.7 22.4V22.5Z" fill="currentColor"/>
  </g>
</svg>